<!-- assets/banner.svg | philosophers -->
<svg xmlns="http://www.w3.org/2000/svg" width="1280" height="360" viewBox="0 0 1280 360" role="img" aria-labelledby="t d">
  <title id="t">Philosophers — Dining Philosophers in C (threads &amp; mutexes)</title>
  <desc id="d">Banner oscuro con mesa redonda, 5 filósofos y tenedores entre ellos; estados think/eat/sleep.</desc>

  <defs>
    <linearGradient id="bg" x1="0" y1="0" x2="1" y2="0">
      <stop offset="0%" stop-color="#1a1b27"/><stop offset="100%" stop-color="#15161e"/>
    </linearGradient>
    <style>
      .title{font:700 56px/1.1 Inter,Segoe UI,Roboto,Arial,sans-serif;fill:#70a5fd}
      .tag{font:500 20px/1.4 Inter,Segoe UI,Roboto,Arial,sans-serif;fill:#c0caf5}
      .mono{font:600 16px/1.35 "JetBrains Mono","Fira Code",Menlo,Consolas,monospace;fill:#c0caf5}
      .fork{stroke:#7aa2f7;stroke-width:4;stroke-linecap:round}
      .state{font:600 14px/1.2 Inter,Segoe UI,Roboto,Arial,sans-serif;fill:#c0caf5}
    </style>
  </defs>

  <rect width="1280" height="360" fill="url(#bg)"/>

  <!-- texto -->
  <g transform="translate(64,112)">
    <text class="title">Philosophers</text>
    <text class="tag" y="48">Threads · Mutexes · Deadlock avoidance · Timing</text>
    <text class="tag" y="78">C · Precise timings &amp; state machine</text>
  </g>

  <!-- mesa y filósofos (derecha) -->
  <g transform="translate(780,40)">
    <!-- mesa redonda -->
    <circle cx="200" cy="140" r="110" fill="#0b1020" stroke="#70a5fd" stroke-opacity=".4"/>
    <!-- filósofos (5 puntos alrededor del círculo) -->
    <g fill="#bb9af7">
      <circle cx="200" cy="30"  r="10"/>
      <circle cx="305" cy="85"  r="10"/>
      <circle cx="270" cy="195" r="10"/>
      <circle cx="130" cy="195" r="10"/>
      <circle cx="95"  cy="85"  r="10"/>
    </g>
    <!-- tenedores (entre filósofos) -->
    <g class="fork">
      <!-- entre P1 (arriba) y P2 (arriba-dcha) -->
      <line x1="240" y1="58" x2="272" y2="78"/>
      <!-- entre P2 y P3 -->
      <line x1="295" y1="125" x2="285" y2="160"/>
      <!-- entre P3 y P4 -->
      <line x1="200" y1="205" x2="150" y2="205"/>
      <!-- entre P4 y P5 -->
      <line x1="115" y1="160" x2="105" y2="125"/>
      <!-- entre P5 y P1 -->
      <line x1="128" y1="58" x2="160" y2="78"/>
    </g>

    <!-- etiquetas de estado -->
    <g class="state" text-anchor="middle">
      <text x="200" y="16">think</text>
      <text x="330" y="90">eat</text>
      <text x="280" y="222">sleep</text>
      <text x="120" y="222">think</text>
      <text x="70"  y="90">eat</text>
    </g>

    <!-- timeline de eventos abajo -->
    <g transform="translate(0,240)">
      <rect x="0" y="0" width="400" height="56" rx="10" fill="#0b1020" stroke="#bb9af7" stroke-opacity=".5"/>
      <text class="mono" x="16" y="24">t=153ms P2 has taken a fork</text>
      <text class="mono" x="16" y="44">t=159ms P2 is eating</text>
    </g>
  </g>
</svg>
